<svg xmlns="http://www.w3.org/2000/svg" viewBox="0 0 124 33" width="124" height="33">
  <path fill="#003087" d="M46.2 5.5h-9.4c-.6 0-1.2.5-1.3 1.1L32 28.1c-.1.5.3.9.7.9h4.5c.6 0 1.2-.5 1.3-1.1l.9-5.7c.1-.6.6-1.1 1.3-1.1h3c6.2 0 9.8-3 10.7-9 .4-2.6 0-4.7-1.2-6.1-1.3-1.6-3.6-2.5-7-2.5zm1.1 8.9c-.5 3.4-3.1 3.4-5.6 3.4h-1.4l1-6.3c.1-.4.4-.6.8-.6h.7c1.7 0 3.3 0 4.1 1 .5.6.6 1.5.4 2.5z"/>
  <path fill="#003087" d="M72.5 14.3h-4.5c-.4 0-.7.3-.8.6l-.2 1.2-.3-.5c-1-1.5-3.1-2-5.3-2-4.9 0-9.1 3.7-9.9 9-.4 2.6.2 5.1 1.6 6.8 1.3 1.6 3.2 2.2 5.5 2.2 4 0 6.2-2.6 6.2-2.6l-.2 1.1c-.1.5.3.9.7.9h4c.6 0 1.2-.5 1.3-1.1l2.7-16.7c.1-.5-.3-1-.8-1zm-6 8.7c-.4 2.5-2.5 4.2-5 4.2-1.3 0-2.3-.4-3-1.2-.6-.8-.9-1.9-.6-3.2.4-2.5 2.5-4.2 5-4.2 1.2 0 2.3.4 2.9 1.2.7.9.9 2 .7 3.2z"/>
  <path fill="#003087" d="M95.1 14.3h-4.5c-.4 0-.8.2-1 .5l-6 8.9-2.6-8.5c-.2-.5-.6-.9-1.2-.9H75c-.5 0-.9.5-.7 1.1l4.9 14.3-4.6 6.5c-.4.5 0 1.2.6 1.2H80c.4 0 .8-.2 1-.5L96 15.4c.3-.5-.1-1.1-.9-1.1z"/>
  <path fill="#009CDE" d="M106.2 5.5h-9.4c-.6 0-1.2.5-1.3 1.1l-3.5 21.5c-.1.5.3.9.7.9h5.1c.4 0 .8-.3.9-.8l1-6h3c6.2 0 9.8-3 10.7-9 .4-2.6 0-4.7-1.2-6.1-1.4-1.6-3.6-2.5-7-2.5zm1.1 8.9c-.5 3.4-3.1 3.4-5.6 3.4h-1.4l1-6.3c.1-.4.4-.6.8-.6h.7c1.7 0 3.3 0 4.1 1 .5.6.7 1.5.4 2.5z"/>
  <path fill="#009CDE" d="M132.5 14.3h-4.5c-.4 0-.7.3-.8.6l-.2 1.2-.3-.5c-1-1.5-3.1-2-5.3-2-4.9 0-9.1 3.7-9.9 9-.4 2.6.2 5.1 1.6 6.8 1.3 1.6 3.2 2.2 5.5 2.2 4 0 6.2-2.6 6.2-2.6l-.2 1.1c-.1.5.3.9.7.9h4c.6 0 1.2-.5 1.3-1.1l2.7-16.7c0-.5-.4-1-.8-1zm-6 8.7c-.4 2.5-2.5 4.2-5 4.2-1.3 0-2.3-.4-3-1.2-.6-.8-.9-1.9-.6-3.2.4-2.5 2.5-4.2 5-4.2 1.2 0 2.3.4 2.9 1.2.7.9.9 2 .7 3.2z"/>
  <path fill="#003087" d="M7.3 2.8H.4C-.1 2.8-.5 3.2-.6 3.7L-4 22.8c0 .5.3.9.8.9H.3c.6 0 1.2-.5 1.3-1.1L2.7 16c.1-.6.6-1.1 1.3-1.1H7c5 0 7.9-2.4 8.7-7.2.3-2.1 0-3.7-.9-4.8C13.7 1.7 10.8 2.8 7.3 2.8v0z"/>
  <path fill="#009CDE" d="M31.4 10.2h-3.8c-.4 0-.7.3-.8.6l-.1 1-.3-.4c-.9-1.3-2.9-1.7-4.9-1.7-4.6 0-8.5 3.5-9.3 8.3-.4 2.4.2 4.8 1.5 6.4 1.2 1.5 3 2.1 5.1 2.1 3.7 0 5.7-2.4 5.7-2.4l-.1 1c-.1.5.3.9.8.9H29c.6 0 1.2-.5 1.3-1.1l2.2-13.8c.1-.5-.3-1-.8-1zm-5.9 8c-.4 2.4-2.4 4-4.8 4-1.2 0-2.2-.4-2.8-1.1-.6-.8-.8-1.8-.6-3 .4-2.4 2.4-3.9 4.8-3.9 1.2 0 2.2.4 2.8 1.1.5.8.8 1.8.6 2.9z"/>
</svg>